<svg version="1.1" id="Layer_1" xmlns="http://www.w3.org/2000/svg" xmlns:xlink="http://www.w3.org/1999/xlink" x="0px" y="0px" width="64px" height="19px" viewBox="0 0 64 19" enable-background="new 0 0 64 19" xml:space="preserve">
<g>
	<g>
		<path fill="#95BF47" d="M13.747,3.418c-0.013-0.089-0.089-0.141-0.153-0.141s-1.332-0.026-1.332-0.026S11.2,2.228,11.098,2.112
			c-0.103-0.103-0.307-0.077-0.384-0.051c0,0-0.205,0.064-0.538,0.167c-0.051-0.179-0.141-0.397-0.256-0.627
			C9.549,0.884,8.985,0.5,8.32,0.5l0,0c-0.051,0-0.089,0-0.141,0.013C8.154,0.487,8.141,0.461,8.115,0.448
			C7.821,0.141,7.45-0.012,7.001,0C6.144,0.026,5.287,0.653,4.583,1.754C4.096,2.535,3.725,3.508,3.609,4.263
			C2.624,4.57,1.933,4.788,1.907,4.788c-0.499,0.154-0.512,0.167-0.576,0.64C1.306,5.786,0,15.886,0,15.886l10.957,1.895
			l4.749-1.178C15.693,16.603,13.76,3.508,13.747,3.418z M9.625,2.407C9.37,2.483,9.088,2.573,8.781,2.676
			c0-0.436-0.064-1.05-0.256-1.562C9.178,1.216,9.498,1.959,9.625,2.407z M8.205,2.842c-0.576,0.179-1.203,0.372-1.83,0.563
			c0.179-0.679,0.512-1.344,0.921-1.792C7.45,1.447,7.667,1.268,7.91,1.165C8.167,1.665,8.218,2.368,8.205,2.842z M7.027,0.576
			c0.205,0,0.371,0.039,0.512,0.141c-0.23,0.115-0.46,0.294-0.666,0.525c-0.55,0.588-0.973,1.498-1.139,2.38
			c-0.525,0.167-1.037,0.32-1.498,0.461C4.544,2.688,5.709,0.615,7.027,0.576z"/>
		<g>
			<path fill="#5F8F3E" d="M13.594,3.277c-0.064,0-1.332-0.026-1.332-0.026S11.2,2.228,11.098,2.112
				c-0.039-0.039-0.09-0.064-0.141-0.064V17.78l4.749-1.178c0,0-1.933-13.095-1.946-13.185C13.734,3.329,13.658,3.277,13.594,3.277z
				"/>
			<path fill="#FFFFFF" d="M8.32,5.722L7.77,7.783c0,0-0.614-0.282-1.344-0.23C5.351,7.616,5.351,8.295,5.351,8.461
				c0.064,0.921,2.483,1.126,2.624,3.29c0.102,1.703-0.896,2.867-2.355,2.957c-1.741,0.09-2.701-0.935-2.701-0.935l0.371-1.574
				c0,0,0.973,0.729,1.741,0.679c0.5-0.025,0.691-0.448,0.666-0.73c-0.077-1.203-2.048-1.126-2.176-3.11
				C3.417,7.373,4.506,5.696,6.912,5.543C7.846,5.479,8.32,5.722,8.32,5.722z"/>
		</g>
	</g>
	<g>
		<path id="s_4_" fill="#FFFFFF" d="M22.131,10.112c-0.551-0.294-0.832-0.55-0.832-0.896c0-0.436,0.396-0.717,1.011-0.717
			c0.717,0,1.356,0.294,1.356,0.294l0.5-1.536c0,0-0.461-0.358-1.818-0.358c-1.894,0-3.212,1.088-3.212,2.61
			c0,0.872,0.614,1.524,1.434,1.999c0.666,0.371,0.896,0.639,0.896,1.036c0,0.409-0.333,0.742-0.947,0.742
			c-0.909,0-1.779-0.474-1.779-0.474l-0.538,1.536c0,0,0.793,0.538,2.138,0.538c1.945,0,3.354-0.961,3.354-2.688
			C23.68,11.265,22.976,10.599,22.131,10.112z"/>
		<path id="h_4_" fill="#FFFFFF" d="M29.888,6.874c-0.96,0-1.715,0.461-2.292,1.152l-0.025-0.013l0.832-4.352H26.24l-2.112,11.086
			h2.163l0.717-3.789c0.282-1.435,1.024-2.318,1.715-2.318c0.486,0,0.678,0.333,0.678,0.807c0,0.293-0.025,0.665-0.089,0.96
			l-0.819,4.34h2.164l0.845-4.48c0.089-0.474,0.153-1.038,0.153-1.421C31.667,7.616,31.027,6.874,29.888,6.874z"/>
		<path id="o_4_" fill="#FFFFFF" d="M36.57,6.874c-2.611,0-4.34,2.354-4.34,4.979c0,1.677,1.037,3.034,2.982,3.034
			c2.561,0,4.288-2.291,4.288-4.979C39.514,8.359,38.605,6.874,36.57,6.874z M35.508,13.236c-0.743,0-1.051-0.628-1.051-1.421
			c0-1.242,0.641-3.265,1.818-3.265c0.768,0,1.023,0.666,1.023,1.305C37.299,11.188,36.646,13.236,35.508,13.236z"/>
		<path id="p_4_" fill="#FFFFFF" d="M45.057,6.874c-1.46,0-2.292,1.293-2.292,1.293h-0.025l0.128-1.165h-1.92
			c-0.09,0.781-0.27,1.984-0.436,2.879l-1.51,7.938h2.163l0.602-3.213h0.051c0,0,0.448,0.282,1.268,0.282
			c2.547,0,4.211-2.611,4.211-5.249C47.296,8.18,46.643,6.874,45.057,6.874z M42.982,13.262c-0.563,0-0.896-0.319-0.896-0.319
			l0.359-2.023c0.256-1.356,0.959-2.253,1.715-2.253c0.666,0,0.87,0.613,0.87,1.189C45.03,11.265,44.198,13.262,42.982,13.262z"/>
		<path id="dot_4_" fill="#FFFFFF" d="M50.394,3.764c-0.69,0-1.241,0.55-1.241,1.254c0,0.64,0.409,1.088,1.023,1.088h0.025
			c0.679,0,1.255-0.461,1.268-1.254C51.469,4.225,51.047,3.764,50.394,3.764z"/>
		<polygon id="i_4_" fill="#FFFFFF" points="47.359,14.733 49.523,14.733 50.995,7.053 48.819,7.053 		"/>
		<path id="f_4_" fill="#FFFFFF" d="M56.512,7.041h-1.51l0.076-0.358c0.129-0.743,0.563-1.396,1.293-1.396
			c0.385,0,0.691,0.115,0.691,0.115L57.484,3.7c0,0-0.371-0.192-1.178-0.192c-0.768,0-1.535,0.217-2.124,0.717
			c-0.743,0.627-1.089,1.536-1.255,2.458l-0.064,0.358h-1.01l-0.32,1.638h1.011l-1.151,6.068h2.162l1.152-6.068h1.498L56.512,7.041z
			"/>
		<path id="y_4_" fill="#FFFFFF" d="M61.734,7.053c0,0-1.357,3.418-1.959,5.287H59.75c-0.038-0.602-0.537-5.287-0.537-5.287h-2.278
			l1.306,7.053c0.025,0.154,0.013,0.256-0.051,0.358c-0.257,0.486-0.68,0.96-1.178,1.306c-0.41,0.295-0.871,0.486-1.229,0.614
			l0.602,1.843c0.436-0.089,1.356-0.461,2.125-1.178c0.985-0.921,1.907-2.354,2.842-4.301L64,7.053H61.734z"/>
	</g>
</g>
</svg>
